<svg width="40" height="40" viewBox="0 0 40 40" fill="none" xmlns="http://www.w3.org/2000/svg">
<path d="M18.1543 8.32898C19.3082 7.88831 20.5848 7.89044 21.7373 8.33484L37.2832 14.3309C38.0828 14.6397 38.1332 15.7196 37.4336 16.1249L37.3174 16.1805V24.4003C37.3173 24.9523 36.8693 25.4 36.3174 25.4003C35.7651 25.4003 35.3164 24.9526 35.3164 24.4003V16.955L33.7314 17.5663V26.5712C33.7312 28.083 32.8874 29.4686 31.5439 30.162C24.2559 33.9234 15.5975 33.9235 8.30955 30.162C6.9663 29.4685 6.12223 28.0829 6.12205 26.5712V17.5262L2.56248 16.1483C1.70911 15.8174 1.71148 14.609 2.56639 14.2821L18.1543 8.32898ZM8.12205 26.5712C8.12223 27.3346 8.54919 28.0344 9.22752 28.3846C15.94 31.849 23.9145 31.8491 30.6269 28.3846C31.3054 28.0344 31.7312 27.3347 31.7314 26.5712V18.3378L21.75 22.1864C20.5898 22.6338 19.304 22.6336 18.1445 22.1844L8.12205 18.3016V26.5712ZM21.0176 10.201C20.3262 9.93448 19.5604 9.93288 18.8681 10.1971L5.70896 15.2225L18.8681 20.3192C19.5637 20.5884 20.3344 20.5885 21.0303 20.3202L32.0049 16.0878H23.5322C22.9801 16.0876 22.5312 15.64 22.5312 15.0878C22.5313 14.5356 22.981 14.0878 23.5332 14.0878H31.0947L21.0176 10.201Z" fill="white"/>
</svg>
