<svg width="40" height="40" viewBox="0 0 40 40" fill="none" xmlns="http://www.w3.org/2000/svg">
<path d="M16.4873 4.53709C18.5842 3.02274 21.4157 3.02284 23.5127 4.53709L34.6709 12.5957C36.6776 14.0452 37.5877 16.5782 36.9629 18.9736L33.1699 33.5146L33.1006 33.7597C32.3315 36.2699 30.0093 38 27.3642 38H12.6357L12.3809 37.9951C9.84251 37.888 7.6437 36.1889 6.89941 33.7597L6.83007 33.5146L3.0371 18.9736C2.43189 16.653 3.26717 14.203 5.14452 12.7344L5.32909 12.5957L16.4873 4.53709ZM22.3418 6.15819C20.9439 5.14886 19.0561 5.14876 17.6582 6.15819L6.49999 14.2168C5.16244 15.1831 4.55539 16.872 4.97167 18.4687L8.76464 33.0097C9.22409 34.771 10.8156 35.9999 12.6357 36H19V30C19 29.9664 19.0016 29.9331 19.0049 29.9004C16.7204 29.4388 15 27.4205 15 25C15 22.2387 17.2387 20.0001 20 20C22.7614 20 25 22.2386 25 25C25 27.4207 23.2799 29.439 20.9951 29.9004C20.9984 29.9331 21 29.9664 21 30V36H27.3642C29.1845 36 30.7759 34.7711 31.2353 33.0097L35.0283 18.4687C35.4447 16.8719 34.8377 15.1831 33.5 14.2168L22.3418 6.15819ZM20 22C18.3433 22.0001 17 23.3432 17 25C17 26.6567 18.3433 27.9998 20 28C21.6568 28 23 26.6568 23 25C23 23.3432 21.6568 22 20 22Z" fill="white"/>
</svg>
