<svg width="40" height="40" viewBox="0 0 40 40" fill="none" xmlns="http://www.w3.org/2000/svg">
<path d="M32.3086 8.00781C35.4789 8.16843 38 10.7898 38 14V27L37.9922 27.3086C37.8367 30.3767 35.3767 32.8367 32.3086 32.9922L32 33H8C4.68629 33 2 30.3137 2 27V14C2 10.6863 4.68629 8 8 8H32L32.3086 8.00781ZM4.78223 11.623C4.29054 12.2876 4 13.1099 4 14V27C4 29.2091 5.79086 31 8 31H32C34.2091 31 36 29.2091 36 27V14C36 13.2313 35.7821 12.5139 35.4062 11.9043L23.7324 22.0225C21.8763 23.6311 19.1261 23.6526 17.2441 22.0742L4.78223 11.623ZM8 10C7.42052 10 6.87019 10.124 6.37305 10.3457L18.5293 20.542C19.6584 21.489 21.3082 21.4758 22.4219 20.5107L33.958 10.5117C33.3792 10.1861 32.7114 10 32 10H8ZM27 11C27.5523 11 28 11.4477 28 12C28 12.5523 27.5523 13 27 13H14C13.4477 13 13 12.5523 13 12C13 11.4477 13.4477 11 14 11H27Z" fill="white"/>
</svg>
