<svg version="1.2" xmlns="http://www.w3.org/2000/svg" viewBox="0 0 1272 507" width="1272" height="507"><style>.a{fill:#fff}.b{fill:#ffb929}</style><path class="a" d="m15.8 424l71-173.5h16.9l70.8 173.5h-25.5l-58.3-146.8 8.8 0.1-58.8 146.7zm33.8-39.2v-20.5h91.3v20.5zm230.7 41.7q-17.5 0-31.7-8.2-14-8.3-22.3-22.3-8-14.2-8-31.5 0-17.5 8-31.5 8.3-14 22.3-22 14.2-8.2 31.7-8.2 13.8 0 25.5 5.2 11.8 5 20.3 14.8l-15 15q-5.5-6.5-13.5-9.8-7.8-3.5-17.3-3.5-11.2 0-20 5.3-8.7 4.9-13.7 14-5 9-5 20.7 0 11.7 5 20.8 5 9 13.7 14.2 8.8 5.3 20 5.3 9.5 0 17.3-3.3 8-3.5 13.7-10l14.8 15q-8.3 9.5-20.3 14.8-11.7 5.2-25.5 5.2zm151.1 0q-16.2 0-29.5-8-13.2-8.3-21-22.2-7.5-14-7.5-31.5 0-17.6 7.5-31.5 7.8-14 20.8-22.3 13.2-8.2 29.7-8.2 13.5 0 24 5.7 10.8 5.5 17.3 15.5 6.5 9.7 7.2 22.8v35.7q-0.7 12.7-7.2 22.8-6.3 10-17 15.7-10.5 5.5-24.3 5.5zm3.8-21.2q16.7 0 27-11.3 10.2-11.5 10.2-29.2 0-12.3-4.7-21.3-4.5-9.3-13-14.2-8.5-5.3-19.8-5.3-11.2 0-20 5.3-8.5 5.2-13.5 14.5-4.7 9-4.7 20.7 0 12 4.7 21.3 5 9 13.8 14.2 8.7 5.3 20 5.3zm35.7 18.7v-32l4.3-29-4.3-28.7v-29h22.8v118.7zm140.7 2.5q-16.5 0-29.5-8-13-8.3-20.7-22.2-7.5-14-7.5-31.5 0-17.6 7.5-31.5 7.7-14 20.7-22.3 13-8.2 29.5-8.2 13.3 0 24 5.7 10.8 5.5 17.3 15.5 6.7 9.7 7.5 22.8v35.7q-0.8 12.7-7.3 22.8-6.5 10-17.2 15.7-10.8 5.5-24.3 5.5zm3.8-21.2q11.2 0 19.5-5.3 8.5-5.2 13.2-14.2 4.8-9.3 4.8-21 0-12.3-5-21.3-4.8-9-13.3-14.2-8.2-5.3-19.5-5.3-11.2 0-19.7 5.3-8.5 5.2-13.5 14.5-4.8 9-4.8 20.7 0 12 4.8 21.3 5 9 13.5 14.2 8.7 5.3 20 5.3zm58.7 18.7h-22.7v-32l4.2-29-4.2-28.7v-88.8h22.7zm122.8 2.5q-17.8 0-32-8-14.3-8.3-22.5-22.2-8.3-14-8.3-31.8 0-17.5 8-31.5 8.3-14 22-22 14-8.2 31.3-8.2 16.5 0 29 7.5 12.7 7.5 19.7 20.7 7.3 13.2 7.3 30 0 2.5-0.3 5.5-0.2 2.7-1 6.5h-100.2v-18.7h88.2l-8.2 7.2q0-12-4.3-20.2-4.2-8.6-12-13-7.7-4.8-18.7-4.8-11.5 0-20.3 5-8.7 5-13.5 14-4.7 9-4.7 21.3 0 12.5 5 22 5 9.2 14.2 14.5 9.3 4.9 21.3 5 10-0.1 18.2-3.5 8.5-3.5 14.5-10.5l14.5 14.7q-8.5 10-21 15.3-12.2 5.2-26.2 5.2zm114-2.5v-118.8l22.5 0.1v118.7zm80.3 0v-71.8q0-13.2-8.3-20.7-8-7.8-20.2-7.8-8.3 0.1-14.8 3.5-6.5 3.5-10.5 9.8-4 6.3-4 15l-9.2-4.5q0-13.5 5.7-23.5 6-10 16.3-15.5 10.2-5.7 23-5.8 12.5 0 22.5 5.5 10.2 5.5 16 15.5 6 10 6 23.8v76.5zm80.2 0v-71.8q0-13.2-8.2-20.7-8-7.8-20-7.8-8.3 0.1-15 3.5-6.5 3.5-10.5 9.8-4 6.3-4 15l-12.8-4.5q0.8-13.8 7.3-23.5 6.7-10 17.2-15.5 10.5-5.7 23-5.8 13 0 23.3 5.5 10.2 5.5 16.2 15.5 6.3 10.1 6.3 24v76.3zm127.3 1l-51.5-119.8h25l38.3 93.8h-8l40.2-93.8h25l-55.5 119.8zm-34 48.7l35-71.7 12.5 23-22.5 48.7z"/><path class="a" d="m93.3 181.8q-18.8 0-33.3-4.8-14.3-5-24-14.5-9.8-9.5-14.8-23.8-4.7-14.5-4.7-33.5v-85q0-9.7 5-14.7 5-5 14.5-5 9.3 0 14.3 5 4.9 5 5 14.7v85.3q0 21.5 9.7 32.5 9.8 10.8 28.3 10.7 18.4 0.1 27.9-10.7 9.8-11 9.8-32.5v-85.3q0-9.7 5-14.7 5-5 14.3-5 9.2 0 13.9 5 5 5 5 14.7v85q0 25.3-8.7 42.5-8.5 17-25.5 25.5-16.8 8.6-41.8 8.5zm129.8-0.5q-9.5 0-14.5-5.2-5-5.3-5-14.8v-140.7q0-9.5 5-14.8 5-5.2 14.5-5.2 9.3 0 14.3 5.2 5 5.3 5 14.8v140.7q0 9.5-5 14.8-4.8 5.2-14.3 5.2zm130.3 0.5q-18.8 0.1-33.3-4.7-14.2-5-24-14.5-9.7-9.5-14.7-23.8-4.8-14.5-4.8-33.5v-85q0-9.7 5-14.7 5-5 14.5-5 9.3 0 14.3 5 5 5 5 14.7v85.3q0 21.5 9.7 32.5 9.8 10.8 28.3 10.7 18.5 0.1 28-10.7 9.7-11 9.7-32.5v-85.3q0-9.7 5-14.7 5-5 14.3-5 9.2 0 14 5 5 5 5 14.7v85q0 25.3-8.8 42.5-8.5 17-25.5 25.5-16.7 8.6-41.7 8.5zm119.5-0.5q-7.5 0.1-12.5-4-4.7-4.2-5.5-10.2-0.7-6.3 4-12.8l55.3-73.2v17.2l-53-70.5q-4.8-6.7-4.3-12.7 0.8-6.3 5.5-10.3 5-4.2 12.3-4.2 6.2 0 10.7 3 4.8 3 9.5 9.5l41.3 57h-12.5l41-57q4.7-6.8 9.5-9.5 4.7-3 11-3 7.5 0 12.2 4 5 4 5.5 10.2 0.8 6-4.2 13l-53.3 70.5v-17.2l55 73.3q5 6.4 4.3 12.7-0.5 6-5.5 10.2-4.8 4.1-12.5 4-6 0-10.8-3-4.5-3-9.5-9.7l-43-59.3h12.8l-43 59.3q-4.8 6.7-9.5 9.7-4.8 3-10.8 3zm179.7 0q-9.5 0-14.5-5.2-5-5.3-5-14.8v-140.7q0-9.5 5-14.8 5-5.2 14.5-5.2 9.2 0 14.2 5.2 5 5.3 5 14.8v140.8q0 9.4-5 14.7-4.7 5.2-14.2 5.2zm72.7 0q-8.7 0.1-13.5-4.7-4.5-5-4.5-14v-142.5q0-9.5 4.5-14.5 4.8-5 12.5-5 6.8 0 10.3 2.7 3.7 2.5 8.5 8.5l87.7 111.8h-6.7v-104.5q0-8.7 4.5-13.5 4.7-5 13.5-5 8.7 0 13.2 5 4.8 4.8 4.8 13.5v144.2q0 8.3-4.3 13.3-4.2 4.8-11.5 4.7-7 0-11.2-2.7-4-2.7-8.8-8.8l-87.5-111.7h6.5v104.5q0 9-4.5 14-4.5 4.8-13.5 4.7zm190.5-2.2q-9.8 0-15-5.3-5.3-5.2-5.3-15v-135.7q0-9.8 5.3-15 5.2-5.3 15-5.3h48.7q45.3 0.1 69.8 23 24.7 22.8 24.7 65 0 21.3-6.5 37.8-6.2 16.2-18.2 27.5-12 11.2-29.5 17.2-17.5 5.8-40.3 5.8zm18.5-31.8h28q14.3 0 24.8-3.5 10.5-3.4 17.5-10.5 7-7 10.5-17.5 3.5-10.7 3.5-25 0-28.4-14.3-42.2-14-14-42-14h-28zm236.6 34.5q-26 0-45.7-11.3-19.5-11.5-30.5-32-10.8-20.5-10.8-47.7 0-20.7 6-37.3 6.3-16.7 17.8-28.5 11.5-12 27.5-18.5 16.2-6.5 35.7-6.5 26.5 0 46 11.3 19.5 11.2 30.3 31.7 11 20.3 11 47.5 0 20.8-6.3 37.5-6.2 16.8-17.7 28.8-11.5 12-27.5 18.5-16 6.5-35.8 6.5zm0-33q14.8 0 25-6.8 10.5-7 16-20 5.8-13.2 5.8-31.2 0-27.5-12.3-42.5-12.2-15.3-34.5-15.3-14.5 0-25 6.8-10.5 6.7-16 19.7-5.5 13-5.5 31.3 0 27.3 12.3 42.7 12.2 15.3 34.2 15.3z"/><path fill-rule="evenodd" class="b" d="m1148.8 469.5c-2.5-6.5-24.1-9.2-88.9-11.5-60.5-2.2-130.9-8.4-253.9-5-94 2.6-211 13.1-211 18.9 0 4.2 4.5 4.3 48.1 0.5 40.3-3.4 60.9-4.2 86.2-5.1-101.1 8.9-122.7 14.7-176.5 20.3-33.8 3.5-14.1 13.6-1.8 12.6 0.2 0 157.3-12.7 172.1-12.1 1.4 0.2-13.6 2.2-33.3 4.6-55.1 6.8-44.5 18.2-3.2 13 138.9-17.7 269.7-23.1 370.4-15.5 31.9 2.4 35.4 2.4 35.4-0.6 0-5.2-8.7-9.2-22.2-10-21.3-1.3-103-5.2-139.9-6.4-2.9-0.1-1.5-2.2 1-2.5 15.1-1.4 134.6-0.3 181.6 1.3 34.6 1.1 37.1 1 35.9-2.5z"/></svg>